<svg xmlns="http://www.w3.org/2000/svg" width="900" height="600" viewBox="0 0 900 600" role="img" aria-label="Football boots">
  <defs><linearGradient id="bg" x1="0" y1="0" x2="1" y2="1"><stop offset="0" stop-color="#e0f2fe"/><stop offset="1" stop-color="#bbf7d0"/></linearGradient><linearGradient id="shoe" x1="0" y1="0" x2="1" y2="1"><stop offset="0" stop-color="#111827"/><stop offset="1" stop-color="#15803d"/></linearGradient></defs>
  <rect width="900" height="600" fill="url(#bg)"/>
  <ellipse cx="450" cy="438" rx="290" ry="38" fill="#0f172a" opacity=".12"/>
  <path d="M190 338c92 19 154 9 231-55 33-28 75-40 127-34l93 12c39 5 69 29 88 64l22 40c10 18-2 39-23 41l-367 34c-77 7-141-20-194-80-12-13 5-26 23-22z" fill="url(#shoe)"/>
  <path d="M384 284l68 69m-18-91l69 74m-15-82l71 77" stroke="#ffffff" stroke-width="18" stroke-linecap="round" opacity=".9"/>
  <path d="M239 430l-18 44m93-51l-9 48m111-58l4 51m118-62l15 47m99-59l26 41" stroke="#111827" stroke-width="16" stroke-linecap="round"/>
</svg>
