<svg xmlns="http://www.w3.org/2000/svg" width="900" height="600" viewBox="0 0 900 600" role="img" aria-label="Goalkeeper gloves">
  <defs><linearGradient id="bg" x1="0" y1="0" x2="1" y2="1"><stop offset="0" stop-color="#e0e7ff"/><stop offset="1" stop-color="#dcfce7"/></linearGradient></defs>
  <rect width="900" height="600" fill="url(#bg)"/>
  <path d="M282 388V206c0-26 40-26 40 0v102-132c0-28 43-28 43 0v128-146c0-28 44-28 44 0v150-122c0-27 42-27 42 0v156l38-51c15-20 48 2 36 25l-62 122c-18 35-54 57-94 57h-2c-47 0-85-38-85-107z" fill="#111827"/>
  <path d="M548 388V206c0-26-40-26-40 0v102-132c0-28-43-28-43 0v128-146c0-28-44-28-44 0v150-122c0-27-42-27-42 0v156l-38-51c-15-20-48 2-36 25l62 122c18 35 54 57 94 57h2c47 0 85-38 85-107z" fill="#15803d" opacity=".95" transform="translate(70 0)"/>
  <path d="M295 420h165m160 0H455" stroke="#ffffff" stroke-width="22" stroke-linecap="round" opacity=".75"/>
</svg>
